<svg version="1.1" id="Layer_1" xmlns="http://www.w3.org/2000/svg" xmlns:xlink="http://www.w3.org/1999/xlink" x="0px" y="0px"
	 width="100%" viewBox="0 0 462 462" enable-background="new 0 0 462 462" xml:space="preserve">
<path fill="#000000" opacity="1.000000" stroke="none" 
	d="
M263.000000,463.000000 
	C175.333328,463.000000 88.166664,463.000000 1.000000,463.000000 
	C1.000000,309.000000 1.000000,155.000000 1.000000,1.000000 
	C155.000000,1.000000 309.000000,1.000000 463.000000,1.000000 
	C463.000000,155.000000 463.000000,309.000000 463.000000,463.000000 
	C396.500000,463.000000 330.000000,463.000000 263.000000,463.000000 
M173.907181,210.478302 
	C173.601776,210.291458 173.296371,210.104614 172.990295,210.011078 
	C172.990295,210.011078 173.083603,210.011902 173.034302,209.071503 
	C173.023285,206.082199 173.013123,203.092880 173.001099,200.103577 
	C172.949768,187.337509 172.949417,187.334824 160.135086,188.085266 
	C159.838135,188.102646 159.555710,188.368073 159.135910,188.585419 
	C159.058823,190.323196 158.978638,192.130722 158.172638,193.972824 
	C154.877884,190.780075 151.583130,187.587326 147.597275,183.724869 
	C137.308685,194.341400 127.033890,204.943695 116.759102,215.545990 
	C117.348877,215.696609 117.938652,215.847214 118.528427,215.997833 
	C118.528427,218.646820 118.572044,221.296661 118.520134,223.944626 
	C118.373245,231.437561 118.570847,238.834274 124.008537,245.552094 
	C124.340820,245.772644 124.673103,245.993195 125.099892,246.574326 
	C125.235268,246.810928 125.438980,246.937683 126.187103,247.742905 
	C134.150070,247.773987 142.113052,247.805069 150.995346,247.967239 
	C155.142471,247.969208 159.401001,247.368332 163.411560,248.109406 
	C170.015213,249.329636 172.961777,245.463181 175.547592,240.717529 
	C176.304413,239.328598 176.543228,237.657440 177.714310,235.668640 
	C177.761078,232.393951 177.807831,229.119247 177.911713,225.276260 
	C177.869308,224.899551 177.826889,224.522827 177.976654,223.352386 
	C178.159760,221.290649 178.762680,219.156448 178.422363,217.185059 
	C177.972107,214.576874 178.265366,211.022339 173.997421,211.002563 
	C173.997421,211.002563 174.063416,211.008133 173.907181,210.478302 
M333.957977,185.942169 
	C333.957977,185.942169 333.934906,185.956161 333.265930,186.168106 
	C331.891144,187.915848 329.636383,189.520645 329.324402,191.441040 
	C328.670990,195.463333 326.465851,196.252029 323.067993,196.115540 
	C320.573700,196.015366 317.941559,195.601440 315.606476,196.218643 
	C312.611786,197.010208 309.853424,198.695633 307.000000,200.000000 
	C307.000000,200.000000 306.996521,199.992310 306.281372,200.077972 
	C303.456085,202.113113 300.630798,204.148270 297.405212,206.471756 
	C296.676453,200.367081 293.092041,197.419846 286.251648,197.696045 
	C296.090546,192.025314 298.032684,189.258743 296.594452,183.793808 
	C295.549225,179.822159 290.072266,176.693558 284.027618,176.615234 
	C278.439270,176.542847 272.843292,179.350525 272.354767,183.275299 
	C271.999481,186.129440 272.335388,189.697769 273.836456,191.977600 
	C275.328552,194.243805 278.661346,195.298096 280.373413,196.373016 
	C278.348480,198.285828 274.342560,200.286102 274.249420,202.454468 
	C273.737396,214.374557 274.042847,226.339523 274.363312,238.281158 
	C274.506104,243.602570 277.151001,246.137878 282.379639,246.415665 
	C287.014435,246.661911 291.672638,246.467300 296.547699,246.467300 
	C296.547699,246.236359 296.728119,247.082840 296.519135,247.818710 
	C294.865356,253.641602 296.252869,258.964050 301.449341,261.663696 
	C306.735748,264.410004 312.733795,266.369568 318.631226,267.233521 
	C330.419067,268.960358 341.682159,266.842590 351.658356,259.759735 
	C356.915802,256.027069 356.840424,250.330414 355.669586,245.303925 
	C354.779663,241.483536 352.646606,236.914062 346.296021,237.146561 
	C345.813446,237.155380 345.330902,237.164185 344.422028,236.627838 
	C342.955200,236.124542 341.488403,235.621246 339.298218,235.074753 
	C338.577026,235.005463 337.855835,234.936172 336.438080,234.402725 
	C332.730713,234.128159 329.023315,233.853607 325.315948,233.579056 
	C325.317139,233.130310 325.318359,232.681564 325.319580,232.232834 
	C335.847992,232.085983 346.305847,231.666458 354.380157,224.575562 
	C356.891693,229.754044 358.405731,234.857513 361.467346,238.740891 
	C366.518250,245.147461 373.929993,246.156204 381.950806,246.659302 
	C396.830811,247.592667 409.346832,242.170471 412.858124,226.629028 
	C414.773071,218.153214 410.525909,204.318069 403.113281,200.174637 
	C393.240295,194.655960 382.714417,195.020386 372.114990,197.424911 
	C370.645844,197.758179 369.412201,199.129623 368.017090,200.014267 
	C368.017090,200.014267 368.011200,200.066589 367.269806,200.081940 
	C363.655518,202.989975 360.041199,205.898026 356.193268,208.994049 
	C355.219604,207.522980 353.618622,205.104065 352.004272,202.664993 
	C359.726257,198.135803 361.742432,193.687851 358.934692,188.082596 
	C356.756317,183.733765 354.413818,183.024719 348.171326,185.085693 
	C345.094635,185.083984 342.017975,185.082275 338.622955,184.784729 
	C338.137390,184.923676 337.651825,185.062622 336.476746,185.124237 
	C336.017517,185.069641 335.558319,185.015030 334.596222,185.128891 
	C334.391174,185.404587 334.186127,185.680283 333.957977,185.942169 
M56.957855,235.717194 
	C56.935341,239.274628 57.037727,242.768005 60.752205,244.772522 
	C67.231323,248.268967 73.678741,247.662094 79.669365,243.925980 
	C81.150421,243.002304 82.075043,240.173630 82.142799,238.182800 
	C82.363068,231.711075 81.852501,225.212891 82.120285,218.745468 
	C82.188217,217.104706 84.101845,215.540344 85.167381,213.940887 
	C85.782242,215.467758 86.869728,216.977219 86.926712,218.524643 
	C87.128563,224.005722 86.913918,229.500519 86.976936,234.988739 
	C87.066010,242.743668 89.802444,245.860870 97.338188,247.011719 
	C106.355545,248.388809 112.828590,242.991684 111.507889,235.007446 
	C111.275398,226.449646 111.042908,217.891830 110.908813,208.507187 
	C110.516914,201.752106 107.757454,197.920105 101.238602,196.763962 
	C96.898964,195.994308 92.018921,195.352997 87.966881,196.583832 
	C82.291313,198.307861 82.080605,196.184723 81.808456,191.659088 
	C81.317993,183.503204 80.516418,177.751236 68.952217,177.199768 
	C60.819099,176.811935 56.866825,179.147781 56.111042,186.219009 
	C56.080276,201.453705 56.031521,216.688446 56.060432,231.923035 
	C56.062298,232.907639 56.662663,233.891083 56.957855,235.717194 
M187.773590,236.309341 
	C187.490662,246.271515 194.259109,247.580780 203.530289,246.600632 
	C211.516342,245.756378 212.189789,244.177628 211.936569,236.051941 
	C211.766083,230.580536 210.897827,225.113144 211.023834,219.659714 
	C211.068832,217.711411 213.118149,215.809402 214.252609,213.886246 
	C215.163406,215.734406 216.685562,217.522537 216.874023,219.441635 
	C217.522339,226.042755 217.599762,232.697601 218.100266,239.316406 
	C218.437729,243.779297 221.474518,246.558136 225.513718,246.799530 
	C229.516754,247.038757 233.653610,245.946533 237.651718,245.072235 
	C240.819870,244.379410 242.092377,242.097519 242.017075,238.757294 
	C241.870804,232.268295 241.856766,225.765854 242.143875,219.284760 
	C242.217102,217.631897 243.623993,216.038116 244.418106,214.417175 
	C245.506073,215.905411 246.926712,217.262192 247.582397,218.921265 
	C248.163208,220.390991 247.969635,222.196182 247.984879,223.854523 
	C248.032349,229.015228 247.946732,234.177887 248.046158,239.337219 
	C248.135498,243.972183 251.486206,246.880920 257.207550,246.923080 
	C264.522430,246.976974 271.576233,245.251602 271.403198,240.144806 
	C271.386658,239.656845 271.635010,239.160889 271.624512,238.671585 
	C271.417511,229.037491 271.362885,219.395813 270.915985,209.772461 
	C270.514252,201.121887 265.075104,196.337769 256.444061,195.982941 
	C249.766785,195.708435 243.474457,196.276596 238.866730,201.507217 
	C230.159424,195.058517 222.745682,194.220261 213.176743,198.107269 
	C211.903702,198.624359 209.742142,199.340881 209.152237,198.768768 
	C205.071503,194.811127 200.091415,196.132095 195.405182,196.077728 
	C188.672989,195.999634 186.781815,198.279251 187.137909,206.236923 
	C187.115341,211.703247 186.976654,217.172318 187.106903,222.635010 
	C187.211227,227.010025 187.642197,231.377228 187.773590,236.309341 
z"/>
<path fill="#15290B" opacity="1.000000" stroke="none" 
	d="
M187.211258,205.344803 
	C186.781815,198.279251 188.672989,195.999634 195.405182,196.077728 
	C200.091415,196.132095 205.071503,194.811127 209.152237,198.768768 
	C209.742142,199.340881 211.903702,198.624359 213.176743,198.107269 
	C222.745682,194.220261 230.159424,195.058517 238.866730,201.507217 
	C243.474457,196.276596 249.766785,195.708435 256.444061,195.982941 
	C265.075104,196.337769 270.514252,201.121887 270.915985,209.772461 
	C271.362885,219.395813 271.417511,229.037491 271.624512,238.671585 
	C271.635010,239.160889 271.386658,239.656845 271.403198,240.144806 
	C271.576233,245.251602 264.522430,246.976974 257.207550,246.923080 
	C251.486206,246.880920 248.135498,243.972183 248.046158,239.337219 
	C247.946732,234.177887 248.032349,229.015228 247.984879,223.854523 
	C247.969635,222.196182 248.163208,220.390991 247.582397,218.921265 
	C246.926712,217.262192 245.506073,215.905411 244.418121,214.417175 
	C243.623993,216.038116 242.217102,217.631897 242.143875,219.284760 
	C241.856766,225.765854 241.870804,232.268295 242.017075,238.757294 
	C242.092377,242.097519 240.819870,244.379410 237.651718,245.072235 
	C233.653610,245.946533 229.516754,247.038757 225.513718,246.799530 
	C221.474518,246.558136 218.437729,243.779297 218.100266,239.316406 
	C217.599762,232.697601 217.522339,226.042755 216.874023,219.441635 
	C216.685562,217.522537 215.163406,215.734406 214.252625,213.886246 
	C213.118149,215.809402 211.068832,217.711411 211.023834,219.659714 
	C210.897827,225.113144 211.766083,230.580536 211.936569,236.051941 
	C212.189789,244.177628 211.516342,245.756378 203.530289,246.600632 
	C194.259109,247.580780 187.490662,246.271515 187.825836,235.576889 
	C187.890778,232.867645 187.959381,230.889374 187.906326,228.914337 
	C187.695236,221.057266 187.446228,213.201233 187.211258,205.344803 
z"/>
<path fill="#15290B" opacity="1.000000" stroke="none" 
	d="
M344.848328,237.173004 
	C345.330902,237.164185 345.813446,237.155380 346.750305,237.453979 
	C347.763855,238.571991 348.226715,239.474335 348.897430,240.178787 
	C354.668518,246.240555 354.676514,252.163803 348.550842,257.899841 
	C341.455597,264.543762 331.829010,263.674286 323.295135,265.052917 
	C318.042267,265.901520 312.013184,263.063049 306.586853,261.156494 
	C304.487335,260.418793 302.247894,257.962708 301.532074,255.805145 
	C299.487732,249.643250 299.014557,243.498901 306.200043,239.785706 
	C306.656128,239.550018 306.754272,238.621674 307.319275,237.892334 
	C312.268524,235.062881 309.367828,231.999939 307.938110,228.681030 
	C306.759338,227.140045 305.798096,225.785278 304.571564,224.742584 
	C298.932800,219.949051 298.006836,217.631454 300.737885,210.934387 
	C302.310638,207.077637 304.877258,203.626190 306.996521,199.992310 
	C306.996521,199.992310 307.000000,200.000000 307.417236,199.993622 
	C311.915131,199.328568 315.978394,198.512695 320.081787,198.060394 
	C323.428040,197.691574 327.888092,199.016708 329.915680,197.300430 
	C332.261688,195.314621 332.492249,190.824127 333.623566,187.415176 
	C333.779266,186.946060 333.833618,186.443329 333.934906,185.956161 
	C333.934906,185.956161 333.957977,185.942169 334.170898,185.801727 
	C334.622253,185.427658 334.860657,185.194046 335.099091,184.960419 
	C335.558319,185.015030 336.017517,185.069641 336.987823,185.252213 
	C337.979706,185.280304 338.460480,185.180435 338.941284,185.080566 
	C342.017975,185.082275 345.094635,185.083984 348.955322,185.264252 
	C350.215302,185.587143 350.693756,185.863892 351.166840,185.855026 
	C355.226440,185.778931 357.496704,187.999435 357.804840,191.771942 
	C358.103333,195.426559 356.008331,197.344177 352.330139,198.269470 
	C350.125641,198.824036 348.267670,200.755829 344.808807,203.010757 
	C347.654999,205.211609 350.094391,206.526077 351.760986,208.494766 
	C356.598236,214.208847 356.019836,220.752838 349.992828,223.777390 
	C343.396118,227.087845 336.617889,230.451736 328.812836,230.012070 
	C327.161133,229.919006 325.404541,229.803452 323.861664,230.258728 
	C322.626068,230.623322 321.641235,231.837769 320.545074,232.675018 
	C321.661865,233.720184 322.765869,235.639450 323.897705,235.656006 
	C328.305206,235.720428 332.721588,235.181442 337.134644,234.866898 
	C337.855835,234.936172 338.577026,235.005463 339.757141,235.401810 
	C341.760132,236.210251 343.304230,236.691635 344.848328,237.173004 
M318.409210,247.606155 
	C321.403198,253.306839 325.445587,253.508545 332.345917,248.301590 
	C329.574738,243.572357 324.513733,243.063446 318.409210,247.606155 
M332.404907,215.502228 
	C330.574493,210.820572 328.277954,209.569153 324.370636,211.871918 
	C323.077637,212.633972 321.714813,215.522247 322.201721,216.661407 
	C324.063904,221.018097 327.415314,219.494064 330.450958,217.807159 
	C331.121460,217.434555 331.574097,216.669907 332.404907,215.502228 
z"/>
<path fill="#162A0B" opacity="1.000000" stroke="none" 
	d="
M56.209259,185.326736 
	C56.866825,179.147781 60.819099,176.811935 68.952217,177.199768 
	C80.516418,177.751236 81.317993,183.503204 81.808456,191.659088 
	C82.080605,196.184723 82.291313,198.307861 87.966881,196.583832 
	C92.018921,195.352997 96.898964,195.994308 101.238602,196.763962 
	C107.757454,197.920105 110.516914,201.752106 110.679871,209.262238 
	C110.638603,218.547882 110.826286,227.078445 111.013977,235.609024 
	C112.828590,242.991684 106.355545,248.388809 97.338188,247.011719 
	C89.802444,245.860870 87.066010,242.743668 86.976936,234.988739 
	C86.913918,229.500519 87.128563,224.005722 86.926712,218.524643 
	C86.869728,216.977219 85.782242,215.467758 85.167381,213.940887 
	C84.101845,215.540344 82.188217,217.104706 82.120285,218.745468 
	C81.852501,225.212891 82.363068,231.711075 82.142799,238.182800 
	C82.075043,240.173630 81.150421,243.002304 79.669365,243.925980 
	C73.678741,247.662094 67.231323,248.268967 60.752205,244.772522 
	C57.037727,242.768005 56.935341,239.274628 56.969917,234.835999 
	C56.995850,219.500793 57.037563,205.046661 56.987431,190.592850 
	C56.981342,188.836609 56.480698,187.082062 56.209259,185.326736 
z"/>
<path fill="#B4C81C" opacity="1.000000" stroke="none" 
	d="
M123.764641,244.992172 
	C118.570847,238.834274 118.373245,231.437561 118.520134,223.944626 
	C118.572044,221.296661 118.528427,218.646820 118.528427,215.997833 
	C117.938652,215.847214 117.348877,215.696609 116.759102,215.545990 
	C127.033890,204.943695 137.308685,194.341400 147.597275,183.724869 
	C151.583130,187.587326 154.877884,190.780075 158.849319,193.818756 
	C161.266068,192.209000 162.889252,189.722610 164.770233,189.509277 
	C168.856995,189.045807 171.228363,190.949539 171.160980,195.889481 
	C171.096893,200.587341 172.388229,205.303680 173.083603,210.011902 
	C173.083603,210.011902 172.990295,210.011078 173.133087,210.179901 
	C173.538391,210.568527 173.800903,210.788330 174.063416,211.008133 
	C174.063416,211.008133 173.997421,211.002563 174.089600,211.346436 
	C174.780701,214.054626 175.326889,216.433945 175.995529,218.778366 
	C176.512299,220.590302 177.182480,222.358490 177.784470,224.146118 
	C177.826889,224.522827 177.869308,224.899551 177.725311,225.919952 
	C177.365753,229.747635 177.192612,232.931641 177.019470,236.115631 
	C176.543228,237.657440 176.304413,239.328598 175.547592,240.717529 
	C172.961777,245.463181 170.015213,249.329636 163.411560,248.109406 
	C159.401001,247.368332 155.142471,247.969208 150.161224,247.708755 
	C141.455078,247.285065 133.583069,247.119843 125.711044,246.954620 
	C125.438980,246.937683 125.235268,246.810928 124.895210,246.144073 
	C124.381897,245.473282 124.073265,245.232727 123.764641,244.992172 
M137.270874,240.572159 
	C138.913345,241.391373 140.555817,242.210602 142.529709,243.039734 
	C142.529709,243.039734 142.837677,243.162613 143.379532,243.515488 
	C143.995163,243.690201 144.610809,243.864914 145.763809,244.025696 
	C146.116653,244.075592 146.469482,244.125504 147.523392,244.547913 
	C150.802673,245.162125 154.137085,245.953842 155.990494,241.985107 
	C155.990494,241.985107 155.934586,241.955444 156.666718,241.964981 
	C164.853546,238.654037 168.326797,224.037369 162.235336,217.791122 
	C161.550674,217.089096 159.432877,217.784729 157.062347,217.965118 
	C151.065277,217.666595 145.068222,217.368073 138.494965,216.685059 
	C136.997482,217.002258 135.112808,216.852509 134.069580,217.717545 
	C129.567535,221.450577 129.820053,237.592102 137.019333,239.987961 
	C137.019333,239.987961 137.015289,239.919006 137.270874,240.572159 
z"/>
<path fill="#182A0F" opacity="1.000000" stroke="none" 
	d="
M306.638947,200.035141 
	C304.877258,203.626190 302.310638,207.077637 300.737885,210.934387 
	C298.006836,217.631454 298.932800,219.949051 304.571564,224.742584 
	C305.798096,225.785278 306.759338,227.140045 307.846008,228.750412 
	C307.849243,229.149750 307.669342,229.294006 307.339355,229.199203 
	C304.016571,226.776871 301.023712,224.449326 297.939636,221.737976 
	C297.235779,218.630081 296.208679,215.924561 296.085754,213.178574 
	C295.665222,203.784729 289.913086,198.836548 280.569702,200.056992 
	C277.637024,200.440063 276.017517,201.781967 276.020325,204.842590 
	C276.029205,214.627975 275.810455,224.419479 276.093384,234.196655 
	C276.294464,241.145432 281.923035,244.784668 288.765106,243.859543 
	C294.369324,243.101791 295.864136,238.913147 298.011414,235.400345 
	C298.118805,237.815384 298.209808,239.822128 298.295074,241.702667 
	C301.472198,240.131592 304.037598,238.862991 306.706848,237.699799 
	C306.810699,237.805222 307.018921,238.015549 307.018921,238.015549 
	C306.754272,238.621674 306.656128,239.550018 306.200043,239.785706 
	C299.014557,243.498901 299.487732,249.643250 301.532074,255.805145 
	C302.247894,257.962708 304.487335,260.418793 306.586853,261.156494 
	C312.013184,263.063049 318.042267,265.901520 323.295135,265.052917 
	C331.829010,263.674286 341.455597,264.543762 348.550842,257.899841 
	C354.676514,252.163803 354.668518,246.240555 348.897430,240.178787 
	C348.226715,239.474335 347.763855,238.571991 347.112152,237.443298 
	C352.646606,236.914062 354.779663,241.483536 355.669586,245.303925 
	C356.840424,250.330414 356.915802,256.027069 351.658356,259.759735 
	C341.682159,266.842590 330.419067,268.960358 318.631226,267.233521 
	C312.733795,266.369568 306.735748,264.410004 301.449341,261.663696 
	C296.252869,258.964050 294.865356,253.641602 296.519135,247.818710 
	C296.728119,247.082840 296.547699,246.236359 296.547699,246.467300 
	C291.672638,246.467300 287.014435,246.661911 282.379639,246.415665 
	C277.151001,246.137878 274.506104,243.602570 274.363312,238.281158 
	C274.042847,226.339523 273.737396,214.374557 274.249420,202.454468 
	C274.342560,200.286102 278.348480,198.285828 280.373413,196.373016 
	C278.661346,195.298096 275.328552,194.243805 273.836456,191.977600 
	C272.335388,189.697769 271.999481,186.129440 272.354767,183.275299 
	C272.843292,179.350525 278.439270,176.542847 284.027618,176.615234 
	C290.072266,176.693558 295.549225,179.822159 296.594452,183.793808 
	C298.032684,189.258743 296.090546,192.025314 286.251648,197.696045 
	C293.092041,197.419846 296.676453,200.367081 297.405212,206.471756 
	C300.630798,204.148270 303.456085,202.113113 306.638947,200.035141 
z"/>
<path fill="#182A0F" opacity="1.000000" stroke="none" 
	d="
M336.786377,234.634811 
	C332.721588,235.181442 328.305206,235.720428 323.897705,235.656006 
	C322.765869,235.639450 321.661865,233.720184 320.545074,232.675018 
	C321.641235,231.837769 322.626068,230.623322 323.861664,230.258728 
	C325.404541,229.803452 327.161133,229.919006 328.812836,230.012070 
	C336.617889,230.451736 343.396118,227.087845 349.992828,223.777390 
	C356.019836,220.752838 356.598236,214.208847 351.760986,208.494766 
	C350.094391,206.526077 347.654999,205.211609 344.808807,203.010757 
	C348.267670,200.755829 350.125641,198.824036 352.330139,198.269470 
	C356.008331,197.344177 358.103333,195.426559 357.804840,191.771942 
	C357.496704,187.999435 355.226440,185.778931 351.166840,185.855026 
	C350.693756,185.863892 350.215302,185.587143 349.416992,185.273468 
	C354.413818,183.024719 356.756317,183.733765 358.934692,188.082596 
	C361.742432,193.687851 359.726257,198.135803 352.004272,202.664993 
	C353.618622,205.104065 355.219604,207.522980 356.193268,208.994049 
	C360.041199,205.898026 363.655518,202.989975 367.537903,200.390717 
	C367.192566,201.463135 366.490051,202.171906 365.980164,202.999405 
	C362.881439,208.028183 359.247528,212.846420 357.032898,218.243973 
	C356.104919,220.505661 358.744873,223.997101 358.842926,226.959915 
	C359.091278,234.462372 364.263763,238.791138 369.750885,241.234894 
	C380.725311,246.122513 392.088531,245.616302 402.367065,238.580017 
	C404.714752,236.972870 406.947845,234.498749 408.071960,231.917709 
	C415.179108,215.599060 405.648712,197.618835 386.308472,198.078796 
	C380.216888,198.223694 374.148529,199.345688 368.069550,200.020477 
	C369.412201,199.129623 370.645844,197.758179 372.114990,197.424911 
	C382.714417,195.020386 393.240295,194.655960 403.113281,200.174637 
	C410.525909,204.318069 414.773071,218.153214 412.858124,226.629028 
	C409.346832,242.170471 396.830811,247.592667 381.950806,246.659302 
	C373.929993,246.156204 366.518250,245.147461 361.467346,238.740891 
	C358.405731,234.857513 356.891693,229.754044 354.380157,224.575562 
	C346.305847,231.666458 335.847992,232.085983 325.319580,232.232834 
	C325.318359,232.681564 325.317139,233.130310 325.315948,233.579056 
	C329.023315,233.853607 332.730713,234.128159 336.786377,234.634811 
z"/>
<path fill="#182A0F" opacity="1.000000" stroke="none" 
	d="
M333.600403,186.062134 
	C333.833618,186.443329 333.779266,186.946060 333.623566,187.415176 
	C332.492249,190.824127 332.261688,195.314621 329.915680,197.300430 
	C327.888092,199.016708 323.428040,197.691574 320.081787,198.060394 
	C315.978394,198.512695 311.915131,199.328568 307.413879,199.991608 
	C309.853424,198.695633 312.611786,197.010208 315.606476,196.218643 
	C317.941559,195.601440 320.573700,196.015366 323.067993,196.115540 
	C326.465851,196.252029 328.670990,195.463333 329.324402,191.441040 
	C329.636383,189.520645 331.891144,187.915848 333.600403,186.062134 
z"/>
<path fill="#AFBD42" opacity="1.000000" stroke="none" 
	d="
M173.058960,209.541702 
	C172.388229,205.303680 171.096893,200.587341 171.160980,195.889481 
	C171.228363,190.949539 168.856995,189.045807 164.770233,189.509277 
	C162.889252,189.722610 161.266068,192.209000 159.212219,193.801468 
	C158.978638,192.130722 159.058823,190.323196 159.135910,188.585419 
	C159.555710,188.368073 159.838135,188.102646 160.135086,188.085266 
	C172.949417,187.334824 172.949768,187.337509 173.001099,200.103577 
	C173.013123,203.092880 173.023285,206.082199 173.058960,209.541702 
z"/>
<path fill="#90A28D" opacity="1.000000" stroke="none" 
	d="
M56.160149,185.772873 
	C56.480698,187.082062 56.981342,188.836609 56.987431,190.592850 
	C57.037563,205.046661 56.995850,219.500793 56.983299,234.414948 
	C56.662663,233.891083 56.062298,232.907639 56.060432,231.923035 
	C56.031521,216.688446 56.080276,201.453705 56.160149,185.772873 
z"/>
<path fill="#606D53" opacity="1.000000" stroke="none" 
	d="
M111.260933,235.308228 
	C110.826286,227.078445 110.638603,218.547882 110.630669,209.675659 
	C111.042908,217.891830 111.275398,226.449646 111.260933,235.308228 
z"/>
<path fill="#90A28D" opacity="1.000000" stroke="none" 
	d="
M187.174591,205.790863 
	C187.446228,213.201233 187.695236,221.057266 187.906326,228.914337 
	C187.959381,230.889374 187.890778,232.867645 187.903137,235.296173 
	C187.642197,231.377228 187.211227,227.010025 187.106903,222.635010 
	C186.976654,217.172318 187.115341,211.703247 187.174591,205.790863 
z"/>
<path fill="#AFBD42" opacity="1.000000" stroke="none" 
	d="
M177.880554,223.749252 
	C177.182480,222.358490 176.512299,220.590302 175.995529,218.778366 
	C175.326889,216.433945 174.780701,214.054626 174.096802,211.314117 
	C178.265366,211.022339 177.972107,214.576874 178.422363,217.185059 
	C178.762680,219.156448 178.159760,221.290649 177.880554,223.749252 
z"/>
<path fill="#AFBD42" opacity="1.000000" stroke="none" 
	d="
M125.949074,247.348770 
	C133.583069,247.119843 141.455078,247.285065 149.701569,247.643219 
	C142.113052,247.805069 134.150070,247.773987 125.949074,247.348770 
z"/>
<path fill="#AFBD42" opacity="1.000000" stroke="none" 
	d="
M177.366882,235.892136 
	C177.192612,232.931641 177.365753,229.747635 177.696747,226.204102 
	C177.807831,229.119247 177.761078,232.393951 177.366882,235.892136 
z"/>
<path fill="#182A0F" opacity="1.000000" stroke="none" 
	d="
M344.635193,236.900421 
	C343.304230,236.691635 341.760132,236.210251 340.118805,235.423401 
	C341.488403,235.621246 342.955200,236.124542 344.635193,236.900421 
z"/>
<path fill="#182A0F" opacity="1.000000" stroke="none" 
	d="
M338.782104,184.932648 
	C338.460480,185.180435 337.979706,185.280304 337.332581,185.290878 
	C337.651825,185.062622 338.137390,184.923676 338.782104,184.932648 
z"/>
<path fill="#AFBD42" opacity="1.000000" stroke="none" 
	d="
M123.886589,245.272125 
	C124.073265,245.232727 124.381897,245.473282 124.847961,245.963806 
	C124.673103,245.993195 124.340820,245.772644 123.886589,245.272125 
z"/>
<path fill="#182A0F" opacity="1.000000" stroke="none" 
	d="
M334.847656,185.044647 
	C334.860657,185.194046 334.622253,185.427658 334.182434,185.808624 
	C334.186127,185.680283 334.391174,185.404587 334.847656,185.044647 
z"/>
<path fill="#AFBD42" opacity="1.000000" stroke="none" 
	d="
M173.985291,210.743225 
	C173.800903,210.788330 173.538391,210.568527 173.133423,210.133240 
	C173.296371,210.104614 173.601776,210.291458 173.985291,210.743225 
z"/>
<path fill="#000000" opacity="1.000000" stroke="none" 
	d="
M318.514160,247.263733 
	C324.513733,243.063446 329.574738,243.572357 332.345917,248.301590 
	C325.445587,253.508545 321.403198,253.306839 318.514160,247.263733 
z"/>
<path fill="#000000" opacity="1.000000" stroke="none" 
	d="
M332.265991,215.794006 
	C331.574097,216.669907 331.121460,217.434555 330.450958,217.807159 
	C327.415314,219.494064 324.063904,221.018097 322.201721,216.661407 
	C321.714813,215.522247 323.077637,212.633972 324.370636,211.871918 
	C328.277954,209.569153 330.574493,210.820572 332.265991,215.794006 
z"/>
<path fill="#182A0F" opacity="1.000000" stroke="none" 
	d="
M307.941345,229.080383 
	C309.367828,231.999939 312.268524,235.062881 307.319275,237.892334 
	C307.018921,238.015549 306.810699,237.805222 306.819946,237.336578 
	C307.109253,234.343292 307.389313,231.818649 307.669373,229.294006 
	C307.669342,229.294006 307.849243,229.149750 307.941345,229.080383 
z"/>
<path fill="#000000" opacity="1.000000" stroke="none" 
	d="
M139.071152,217.069565 
	C145.068222,217.368073 151.065277,217.666595 157.910034,217.972549 
	C160.161652,220.054382 162.295105,221.956009 162.834854,224.235077 
	C164.564255,231.537704 161.313797,237.240448 155.934586,241.955444 
	C155.934586,241.955444 155.990494,241.985107 155.595123,241.993286 
	C152.407288,242.726105 149.614807,243.450760 146.822327,244.175415 
	C146.469482,244.125504 146.116653,244.075592 145.327698,243.712555 
	C144.206955,243.320480 143.522324,243.241547 142.837677,243.162613 
	C142.837677,243.162613 142.529709,243.039734 142.200729,242.708603 
	C140.252930,241.557983 138.634109,240.738495 137.015289,239.919006 
	C137.015289,239.919006 137.019333,239.987961 136.993103,239.612152 
	C135.944275,237.028992 134.917984,234.823364 133.899811,232.613968 
	C131.090866,226.518600 133.414749,219.537521 139.071152,217.069565 
z"/>
<path fill="#AFBD42" opacity="1.000000" stroke="none" 
	d="
M156.300659,241.960205 
	C161.313797,237.240448 164.564255,231.537704 162.834854,224.235077 
	C162.295105,221.956009 160.161652,220.054382 158.368698,217.906097 
	C159.432877,217.784729 161.550674,217.089096 162.235336,217.791122 
	C168.326797,224.037369 164.853546,238.654037 156.300659,241.960205 
z"/>
<path fill="#AFBD42" opacity="1.000000" stroke="none" 
	d="
M138.783051,216.877319 
	C133.414749,219.537521 131.090866,226.518600 133.899811,232.613968 
	C134.917984,234.823364 135.944275,237.028992 137.027374,239.607971 
	C129.820053,237.592102 129.567535,221.450577 134.069580,217.717545 
	C135.112808,216.852509 136.997482,217.002258 138.783051,216.877319 
z"/>
<path fill="#AFBD42" opacity="1.000000" stroke="none" 
	d="
M147.172852,244.361664 
	C149.614807,243.450760 152.407288,242.726105 155.587067,241.962677 
	C154.137085,245.953842 150.802673,245.162125 147.172852,244.361664 
z"/>
<path fill="#AFBD42" opacity="1.000000" stroke="none" 
	d="
M137.143082,240.245575 
	C138.634109,240.738495 140.252930,241.557983 142.035019,242.703644 
	C140.555817,242.210602 138.913345,241.391373 137.143082,240.245575 
z"/>
<path fill="#AFBD42" opacity="1.000000" stroke="none" 
	d="
M143.108612,243.339050 
	C143.522324,243.241547 144.206955,243.320480 145.059021,243.719528 
	C144.610809,243.864914 143.995163,243.690201 143.108612,243.339050 
z"/>
<path fill="#15290B" opacity="1.000000" stroke="none" 
	d="
M297.994995,234.992065 
	C295.864136,238.913147 294.369324,243.101791 288.765106,243.859543 
	C281.923035,244.784668 276.294464,241.145432 276.093384,234.196655 
	C275.810455,224.419479 276.029205,214.627975 276.020325,204.842590 
	C276.017517,201.781967 277.637024,200.440063 280.569702,200.056992 
	C289.913086,198.836548 295.665222,203.784729 296.085754,213.178574 
	C296.208679,215.924561 297.235779,218.630081 297.928345,222.188751 
	C298.003845,227.012924 297.999420,231.002502 297.994995,234.992065 
z"/>
<path fill="#000000" opacity="1.000000" stroke="none" 
	d="
M298.011414,235.400345 
	C297.999420,231.002502 298.003845,227.012924 298.019562,222.572571 
	C301.023712,224.449326 304.016571,226.776871 307.339386,229.199203 
	C307.389313,231.818649 307.109253,234.343292 306.716125,237.231155 
	C304.037598,238.862991 301.472198,240.131592 298.295074,241.702667 
	C298.209808,239.822128 298.118805,237.815384 298.011414,235.400345 
z"/>
<path fill="#15290B" opacity="1.000000" stroke="none" 
	d="
M368.043335,200.017365 
	C374.148529,199.345688 380.216888,198.223694 386.308472,198.078796 
	C405.648712,197.618835 415.179108,215.599060 408.071960,231.917709 
	C406.947845,234.498749 404.714752,236.972870 402.367065,238.580017 
	C392.088531,245.616302 380.725311,246.122513 369.750885,241.234894 
	C364.263763,238.791138 359.091278,234.462372 358.842926,226.959915 
	C358.744873,223.997101 356.104919,220.505661 357.032898,218.243973 
	C359.247528,212.846420 362.881439,208.028183 365.980164,202.999405 
	C366.490051,202.171906 367.192566,201.463135 367.908630,200.383026 
	C368.011200,200.066589 368.017090,200.014267 368.043335,200.017365 
M380.428741,217.573334 
	C380.310760,219.053925 380.093018,220.534714 380.096222,222.015045 
	C380.102264,224.822983 380.634827,228.075867 384.076111,227.518677 
	C386.082550,227.193802 389.315582,224.180695 389.135406,222.733139 
	C388.750427,219.639420 386.504822,216.777222 385.021393,213.820206 
	C383.586914,214.842606 382.152435,215.865021 380.428741,217.573334 
z"/>
<path fill="#000000" opacity="1.000000" stroke="none" 
	d="
M380.573334,217.230377 
	C382.152435,215.865021 383.586914,214.842606 385.021393,213.820190 
	C386.504822,216.777222 388.750427,219.639420 389.135406,222.733139 
	C389.315582,224.180695 386.082550,227.193802 384.076111,227.518677 
	C380.634827,228.075867 380.102264,224.822983 380.096222,222.015045 
	C380.093018,220.534714 380.310760,219.053925 380.573334,217.230377 
z"/>
</svg>